<mxfile host="www.draw.io" modified="2019-11-11T11:20:44.460Z" agent="Mozilla/5.0 (Windows NT 10.0; Win64; x64) AppleWebKit/537.36 (KHTML, like Gecko) Chrome/78.0.3904.87 Safari/537.36" etag="JEdPVlwECMi62WPS_Prw" version="12.2.3" type="github" pages="1">
  <diagram id="YPTHDKjMDdZ0df9Zm2tn" name="Page-1">
    <mxGraphModel dx="1082" dy="509" grid="1" gridSize="10" guides="1" tooltips="1" connect="1" arrows="1" fold="1" page="1" pageScale="1" pageWidth="827" pageHeight="1169" math="0" shadow="0">
      <root>
        <mxCell id="0"/>
        <mxCell id="1" parent="0"/>
        <mxCell id="HoJw07WEgpqZ8-vBHWcj-193" value="" style="rounded=0;whiteSpace=wrap;html=1;fillColor=#ffff88;strokeColor=#36393d;" parent="1" vertex="1">
          <mxGeometry x="230" y="320" width="640" height="60" as="geometry"/>
        </mxCell>
        <mxCell id="HoJw07WEgpqZ8-vBHWcj-194" value="&lt;b&gt;Filter表&lt;/b&gt;" style="text;html=1;strokeColor=none;fillColor=none;align=center;verticalAlign=middle;whiteSpace=wrap;rounded=0;" parent="1" vertex="1">
          <mxGeometry x="240" y="340" width="50" height="20" as="geometry"/>
        </mxCell>
        <mxCell id="HoJw07WEgpqZ8-vBHWcj-191" value="" style="rounded=0;whiteSpace=wrap;html=1;fillColor=#ffff88;strokeColor=#36393d;" parent="1" vertex="1">
          <mxGeometry x="60" y="240" width="640" height="60" as="geometry"/>
        </mxCell>
        <mxCell id="HoJw07WEgpqZ8-vBHWcj-192" value="&lt;b&gt;NAT表&lt;/b&gt;" style="text;html=1;strokeColor=none;fillColor=none;align=center;verticalAlign=middle;whiteSpace=wrap;rounded=0;" parent="1" vertex="1">
          <mxGeometry x="70" y="260" width="40" height="20" as="geometry"/>
        </mxCell>
        <mxCell id="HoJw07WEgpqZ8-vBHWcj-189" value="" style="rounded=0;whiteSpace=wrap;html=1;fillColor=#ffff88;strokeColor=#36393d;" parent="1" vertex="1">
          <mxGeometry x="60" y="160" width="810" height="60" as="geometry"/>
        </mxCell>
        <mxCell id="HoJw07WEgpqZ8-vBHWcj-190" value="&lt;b&gt;Mangle表&lt;/b&gt;" style="text;html=1;strokeColor=none;fillColor=none;align=center;verticalAlign=middle;whiteSpace=wrap;rounded=0;" parent="1" vertex="1">
          <mxGeometry x="68" y="180" width="60" height="20" as="geometry"/>
        </mxCell>
        <mxCell id="HoJw07WEgpqZ8-vBHWcj-133" value="" style="rounded=0;whiteSpace=wrap;html=1;fillColor=#ffff88;strokeColor=#36393d;" parent="1" vertex="1">
          <mxGeometry x="60" y="80" width="340" height="60" as="geometry"/>
        </mxCell>
        <mxCell id="HoJw07WEgpqZ8-vBHWcj-13" value="&lt;b&gt;PREROUTING&lt;/b&gt;" style="rounded=1;whiteSpace=wrap;html=1;fillColor=#e51400;strokeColor=#B20000;fontColor=#ffffff;" parent="1" vertex="1">
          <mxGeometry x="110" y="30" width="120" height="40" as="geometry"/>
        </mxCell>
        <mxCell id="HoJw07WEgpqZ8-vBHWcj-21" value="" style="group" parent="1" vertex="1" connectable="0">
          <mxGeometry x="147.5" y="230" width="45" height="80" as="geometry"/>
        </mxCell>
        <mxCell id="HoJw07WEgpqZ8-vBHWcj-26" value="" style="group" parent="1" vertex="1" connectable="0">
          <mxGeometry x="147.5" y="150" width="45" height="80" as="geometry"/>
        </mxCell>
        <mxCell id="HoJw07WEgpqZ8-vBHWcj-20" value="" style="group" parent="HoJw07WEgpqZ8-vBHWcj-26" vertex="1" connectable="0">
          <mxGeometry width="45" height="80" as="geometry"/>
        </mxCell>
        <mxCell id="HoJw07WEgpqZ8-vBHWcj-14" value="" style="group" parent="HoJw07WEgpqZ8-vBHWcj-20" vertex="1" connectable="0">
          <mxGeometry width="45" height="80" as="geometry"/>
        </mxCell>
        <mxCell id="HoJw07WEgpqZ8-vBHWcj-10" value="" style="rhombus;whiteSpace=wrap;html=1;fillColor=#dae8fc;strokeColor=#6c8ebf;" parent="HoJw07WEgpqZ8-vBHWcj-14" vertex="1">
          <mxGeometry x="13" width="18" height="80" as="geometry"/>
        </mxCell>
        <mxCell id="HoJw07WEgpqZ8-vBHWcj-12" value="规则2" style="rounded=0;whiteSpace=wrap;html=1;fillColor=#dae8fc;strokeColor=#6c8ebf;" parent="HoJw07WEgpqZ8-vBHWcj-14" vertex="1">
          <mxGeometry y="30" width="45" height="20" as="geometry"/>
        </mxCell>
        <mxCell id="HoJw07WEgpqZ8-vBHWcj-32" value="" style="group" parent="1" vertex="1" connectable="0">
          <mxGeometry x="147" y="230" width="45" height="80" as="geometry"/>
        </mxCell>
        <mxCell id="HoJw07WEgpqZ8-vBHWcj-33" value="" style="group" parent="HoJw07WEgpqZ8-vBHWcj-32" vertex="1" connectable="0">
          <mxGeometry width="45" height="80" as="geometry"/>
        </mxCell>
        <mxCell id="HoJw07WEgpqZ8-vBHWcj-34" value="" style="group" parent="HoJw07WEgpqZ8-vBHWcj-33" vertex="1" connectable="0">
          <mxGeometry width="45" height="80" as="geometry"/>
        </mxCell>
        <mxCell id="HoJw07WEgpqZ8-vBHWcj-35" value="" style="rhombus;whiteSpace=wrap;html=1;fillColor=#dae8fc;strokeColor=#6c8ebf;" parent="HoJw07WEgpqZ8-vBHWcj-34" vertex="1">
          <mxGeometry x="13" width="18" height="80" as="geometry"/>
        </mxCell>
        <mxCell id="HoJw07WEgpqZ8-vBHWcj-36" value="规则3" style="rounded=0;whiteSpace=wrap;html=1;fillColor=#dae8fc;strokeColor=#6c8ebf;" parent="HoJw07WEgpqZ8-vBHWcj-34" vertex="1">
          <mxGeometry y="30" width="45" height="20" as="geometry"/>
        </mxCell>
        <mxCell id="HoJw07WEgpqZ8-vBHWcj-37" value="" style="group" parent="1" vertex="1" connectable="0">
          <mxGeometry x="146.5" y="70" width="45" height="80" as="geometry"/>
        </mxCell>
        <mxCell id="HoJw07WEgpqZ8-vBHWcj-38" value="" style="group" parent="HoJw07WEgpqZ8-vBHWcj-37" vertex="1" connectable="0">
          <mxGeometry width="45" height="80" as="geometry"/>
        </mxCell>
        <mxCell id="HoJw07WEgpqZ8-vBHWcj-39" value="" style="group" parent="HoJw07WEgpqZ8-vBHWcj-38" vertex="1" connectable="0">
          <mxGeometry width="45" height="80" as="geometry"/>
        </mxCell>
        <mxCell id="HoJw07WEgpqZ8-vBHWcj-40" value="" style="rhombus;whiteSpace=wrap;html=1;fillColor=#dae8fc;strokeColor=#6c8ebf;" parent="HoJw07WEgpqZ8-vBHWcj-39" vertex="1">
          <mxGeometry x="13" width="18" height="80" as="geometry"/>
        </mxCell>
        <mxCell id="HoJw07WEgpqZ8-vBHWcj-41" value="规则1" style="rounded=0;whiteSpace=wrap;html=1;fillColor=#dae8fc;strokeColor=#6c8ebf;" parent="HoJw07WEgpqZ8-vBHWcj-39" vertex="1">
          <mxGeometry y="30" width="45" height="20" as="geometry"/>
        </mxCell>
        <mxCell id="HoJw07WEgpqZ8-vBHWcj-42" value="" style="group" parent="1" vertex="1" connectable="0">
          <mxGeometry x="146.5" y="310" width="45" height="80" as="geometry"/>
        </mxCell>
        <mxCell id="HoJw07WEgpqZ8-vBHWcj-43" value="" style="group" parent="HoJw07WEgpqZ8-vBHWcj-42" vertex="1" connectable="0">
          <mxGeometry width="45" height="80" as="geometry"/>
        </mxCell>
        <mxCell id="HoJw07WEgpqZ8-vBHWcj-45" value="" style="rhombus;whiteSpace=wrap;html=1;fillColor=#dae8fc;strokeColor=#6c8ebf;" parent="HoJw07WEgpqZ8-vBHWcj-43" vertex="1">
          <mxGeometry x="13" width="18" height="80" as="geometry"/>
        </mxCell>
        <mxCell id="HoJw07WEgpqZ8-vBHWcj-46" value="规则4" style="rounded=0;whiteSpace=wrap;html=1;fillColor=#dae8fc;strokeColor=#6c8ebf;" parent="HoJw07WEgpqZ8-vBHWcj-43" vertex="1">
          <mxGeometry y="30" width="45" height="20" as="geometry"/>
        </mxCell>
        <mxCell id="HoJw07WEgpqZ8-vBHWcj-79" value="&lt;b&gt;FORWARD&lt;/b&gt;" style="rounded=1;whiteSpace=wrap;html=1;fillColor=#e51400;strokeColor=#B20000;fontColor=#ffffff;" parent="1" vertex="1">
          <mxGeometry x="270" y="30" width="120" height="40" as="geometry"/>
        </mxCell>
        <mxCell id="HoJw07WEgpqZ8-vBHWcj-80" value="" style="group" parent="1" vertex="1" connectable="0">
          <mxGeometry x="307.5" y="230" width="45" height="80" as="geometry"/>
        </mxCell>
        <mxCell id="HoJw07WEgpqZ8-vBHWcj-81" value="" style="group;" parent="1" vertex="1" connectable="0">
          <mxGeometry x="307.5" y="150" width="45" height="80" as="geometry"/>
        </mxCell>
        <mxCell id="HoJw07WEgpqZ8-vBHWcj-82" value="" style="group" parent="HoJw07WEgpqZ8-vBHWcj-81" vertex="1" connectable="0">
          <mxGeometry width="45" height="80" as="geometry"/>
        </mxCell>
        <mxCell id="HoJw07WEgpqZ8-vBHWcj-83" value="" style="group" parent="HoJw07WEgpqZ8-vBHWcj-82" vertex="1" connectable="0">
          <mxGeometry width="45" height="80" as="geometry"/>
        </mxCell>
        <mxCell id="HoJw07WEgpqZ8-vBHWcj-84" value="" style="rhombus;whiteSpace=wrap;html=1;fillColor=#dae8fc;strokeColor=#6c8ebf;" parent="HoJw07WEgpqZ8-vBHWcj-83" vertex="1">
          <mxGeometry x="13" width="18" height="80" as="geometry"/>
        </mxCell>
        <mxCell id="HoJw07WEgpqZ8-vBHWcj-85" value="规则2" style="rounded=0;whiteSpace=wrap;html=1;fillColor=#dae8fc;strokeColor=#6c8ebf;" parent="HoJw07WEgpqZ8-vBHWcj-83" vertex="1">
          <mxGeometry y="30" width="45" height="20" as="geometry"/>
        </mxCell>
        <mxCell id="HoJw07WEgpqZ8-vBHWcj-86" value="" style="group;" parent="1" vertex="1" connectable="0">
          <mxGeometry x="307" y="230" width="45" height="80" as="geometry"/>
        </mxCell>
        <mxCell id="HoJw07WEgpqZ8-vBHWcj-87" value="" style="group" parent="HoJw07WEgpqZ8-vBHWcj-86" vertex="1" connectable="0">
          <mxGeometry width="45" height="80" as="geometry"/>
        </mxCell>
        <mxCell id="HoJw07WEgpqZ8-vBHWcj-88" value="" style="group" parent="HoJw07WEgpqZ8-vBHWcj-87" vertex="1" connectable="0">
          <mxGeometry width="45" height="80" as="geometry"/>
        </mxCell>
        <mxCell id="HoJw07WEgpqZ8-vBHWcj-89" value="" style="rhombus;whiteSpace=wrap;html=1;fillColor=#dae8fc;strokeColor=#6c8ebf;" parent="HoJw07WEgpqZ8-vBHWcj-88" vertex="1">
          <mxGeometry x="13" width="18" height="80" as="geometry"/>
        </mxCell>
        <mxCell id="HoJw07WEgpqZ8-vBHWcj-90" value="规则3" style="rounded=0;whiteSpace=wrap;html=1;fillColor=#dae8fc;strokeColor=#6c8ebf;" parent="HoJw07WEgpqZ8-vBHWcj-88" vertex="1">
          <mxGeometry y="30" width="45" height="20" as="geometry"/>
        </mxCell>
        <mxCell id="HoJw07WEgpqZ8-vBHWcj-91" value="" style="group" parent="1" vertex="1" connectable="0">
          <mxGeometry x="306.5" y="70" width="45" height="80" as="geometry"/>
        </mxCell>
        <mxCell id="HoJw07WEgpqZ8-vBHWcj-92" value="" style="group" parent="HoJw07WEgpqZ8-vBHWcj-91" vertex="1" connectable="0">
          <mxGeometry width="45" height="80" as="geometry"/>
        </mxCell>
        <mxCell id="HoJw07WEgpqZ8-vBHWcj-93" value="" style="group" parent="HoJw07WEgpqZ8-vBHWcj-92" vertex="1" connectable="0">
          <mxGeometry width="45" height="80" as="geometry"/>
        </mxCell>
        <mxCell id="HoJw07WEgpqZ8-vBHWcj-94" value="" style="rhombus;whiteSpace=wrap;html=1;fillColor=#dae8fc;strokeColor=#6c8ebf;" parent="HoJw07WEgpqZ8-vBHWcj-93" vertex="1">
          <mxGeometry x="13" width="18" height="80" as="geometry"/>
        </mxCell>
        <mxCell id="HoJw07WEgpqZ8-vBHWcj-95" value="规则1" style="rounded=0;whiteSpace=wrap;html=1;fillColor=#dae8fc;strokeColor=#6c8ebf;" parent="HoJw07WEgpqZ8-vBHWcj-93" vertex="1">
          <mxGeometry y="30" width="45" height="20" as="geometry"/>
        </mxCell>
        <mxCell id="HoJw07WEgpqZ8-vBHWcj-96" value="" style="group;" parent="1" vertex="1" connectable="0">
          <mxGeometry x="306.5" y="310" width="45" height="80" as="geometry"/>
        </mxCell>
        <mxCell id="HoJw07WEgpqZ8-vBHWcj-97" value="" style="group" parent="HoJw07WEgpqZ8-vBHWcj-96" vertex="1" connectable="0">
          <mxGeometry width="45" height="80" as="geometry"/>
        </mxCell>
        <mxCell id="HoJw07WEgpqZ8-vBHWcj-98" value="" style="group" parent="HoJw07WEgpqZ8-vBHWcj-97" vertex="1" connectable="0">
          <mxGeometry width="45" height="80" as="geometry"/>
        </mxCell>
        <mxCell id="HoJw07WEgpqZ8-vBHWcj-99" value="" style="rhombus;whiteSpace=wrap;html=1;fillColor=#dae8fc;strokeColor=#6c8ebf;" parent="HoJw07WEgpqZ8-vBHWcj-98" vertex="1">
          <mxGeometry x="13" width="18" height="80" as="geometry"/>
        </mxCell>
        <mxCell id="HoJw07WEgpqZ8-vBHWcj-100" value="规则4" style="rounded=0;whiteSpace=wrap;html=1;fillColor=#dae8fc;strokeColor=#6c8ebf;" parent="HoJw07WEgpqZ8-vBHWcj-98" vertex="1">
          <mxGeometry y="30" width="45" height="20" as="geometry"/>
        </mxCell>
        <mxCell id="HoJw07WEgpqZ8-vBHWcj-106" value="&lt;b&gt;INPUT&lt;/b&gt;" style="rounded=1;whiteSpace=wrap;html=1;fillColor=#e51400;strokeColor=#B20000;fontColor=#ffffff;" parent="1" vertex="1">
          <mxGeometry x="430" y="30" width="120" height="40" as="geometry"/>
        </mxCell>
        <mxCell id="HoJw07WEgpqZ8-vBHWcj-107" value="" style="group" parent="1" vertex="1" connectable="0">
          <mxGeometry x="467.5" y="230" width="45" height="80" as="geometry"/>
        </mxCell>
        <mxCell id="HoJw07WEgpqZ8-vBHWcj-123" value="" style="group" parent="1" vertex="1" connectable="0">
          <mxGeometry x="466.5" y="310" width="45" height="80" as="geometry"/>
        </mxCell>
        <mxCell id="HoJw07WEgpqZ8-vBHWcj-124" value="" style="group" parent="HoJw07WEgpqZ8-vBHWcj-123" vertex="1" connectable="0">
          <mxGeometry width="45" height="80" as="geometry"/>
        </mxCell>
        <mxCell id="HoJw07WEgpqZ8-vBHWcj-125" value="" style="group" parent="HoJw07WEgpqZ8-vBHWcj-124" vertex="1" connectable="0">
          <mxGeometry width="45" height="80" as="geometry"/>
        </mxCell>
        <mxCell id="HoJw07WEgpqZ8-vBHWcj-126" value="" style="rhombus;whiteSpace=wrap;html=1;fillColor=#dae8fc;strokeColor=#6c8ebf;" parent="HoJw07WEgpqZ8-vBHWcj-125" vertex="1">
          <mxGeometry x="13" width="18" height="80" as="geometry"/>
        </mxCell>
        <mxCell id="HoJw07WEgpqZ8-vBHWcj-127" value="规则4" style="rounded=0;whiteSpace=wrap;html=1;fillColor=#dae8fc;strokeColor=#6c8ebf;" parent="HoJw07WEgpqZ8-vBHWcj-125" vertex="1">
          <mxGeometry y="30" width="45" height="20" as="geometry"/>
        </mxCell>
        <mxCell id="HoJw07WEgpqZ8-vBHWcj-134" value="&lt;b&gt;Raw表&lt;/b&gt;" style="text;html=1;strokeColor=none;fillColor=none;align=center;verticalAlign=middle;whiteSpace=wrap;rounded=0;" parent="1" vertex="1">
          <mxGeometry x="70" y="100" width="40" height="20" as="geometry"/>
        </mxCell>
        <mxCell id="HoJw07WEgpqZ8-vBHWcj-135" value="&lt;b&gt;POSTROUTING&lt;/b&gt;" style="rounded=1;whiteSpace=wrap;html=1;fillColor=#e51400;strokeColor=#B20000;fontColor=#ffffff;" parent="1" vertex="1">
          <mxGeometry x="590" y="30" width="120" height="40" as="geometry"/>
        </mxCell>
        <mxCell id="HoJw07WEgpqZ8-vBHWcj-136" value="" style="group" parent="1" vertex="1" connectable="0">
          <mxGeometry x="627.5" y="230" width="45" height="80" as="geometry"/>
        </mxCell>
        <mxCell id="HoJw07WEgpqZ8-vBHWcj-137" value="" style="group" parent="1" vertex="1" connectable="0">
          <mxGeometry x="627.5" y="150" width="45" height="80" as="geometry"/>
        </mxCell>
        <mxCell id="HoJw07WEgpqZ8-vBHWcj-138" value="" style="group" parent="HoJw07WEgpqZ8-vBHWcj-137" vertex="1" connectable="0">
          <mxGeometry width="45" height="80" as="geometry"/>
        </mxCell>
        <mxCell id="HoJw07WEgpqZ8-vBHWcj-139" value="" style="group" parent="HoJw07WEgpqZ8-vBHWcj-138" vertex="1" connectable="0">
          <mxGeometry width="45" height="80" as="geometry"/>
        </mxCell>
        <mxCell id="HoJw07WEgpqZ8-vBHWcj-140" value="" style="rhombus;whiteSpace=wrap;html=1;fillColor=#dae8fc;strokeColor=#6c8ebf;" parent="HoJw07WEgpqZ8-vBHWcj-139" vertex="1">
          <mxGeometry x="13" width="18" height="80" as="geometry"/>
        </mxCell>
        <mxCell id="HoJw07WEgpqZ8-vBHWcj-141" value="规则2" style="rounded=0;whiteSpace=wrap;html=1;fillColor=#dae8fc;strokeColor=#6c8ebf;" parent="HoJw07WEgpqZ8-vBHWcj-139" vertex="1">
          <mxGeometry y="30" width="45" height="20" as="geometry"/>
        </mxCell>
        <mxCell id="HoJw07WEgpqZ8-vBHWcj-142" value="" style="group" parent="1" vertex="1" connectable="0">
          <mxGeometry x="627" y="230" width="45" height="80" as="geometry"/>
        </mxCell>
        <mxCell id="HoJw07WEgpqZ8-vBHWcj-143" value="" style="group" parent="HoJw07WEgpqZ8-vBHWcj-142" vertex="1" connectable="0">
          <mxGeometry width="45" height="80" as="geometry"/>
        </mxCell>
        <mxCell id="HoJw07WEgpqZ8-vBHWcj-144" value="" style="group" parent="HoJw07WEgpqZ8-vBHWcj-143" vertex="1" connectable="0">
          <mxGeometry width="45" height="80" as="geometry"/>
        </mxCell>
        <mxCell id="HoJw07WEgpqZ8-vBHWcj-145" value="" style="rhombus;whiteSpace=wrap;html=1;fillColor=#dae8fc;strokeColor=#6c8ebf;" parent="HoJw07WEgpqZ8-vBHWcj-144" vertex="1">
          <mxGeometry x="13" width="18" height="80" as="geometry"/>
        </mxCell>
        <mxCell id="HoJw07WEgpqZ8-vBHWcj-146" value="规则3" style="rounded=0;whiteSpace=wrap;html=1;fillColor=#dae8fc;strokeColor=#6c8ebf;" parent="HoJw07WEgpqZ8-vBHWcj-144" vertex="1">
          <mxGeometry y="30" width="45" height="20" as="geometry"/>
        </mxCell>
        <mxCell id="HoJw07WEgpqZ8-vBHWcj-147" value="" style="group" parent="1" vertex="1" connectable="0">
          <mxGeometry x="626.5" y="70" width="45" height="80" as="geometry"/>
        </mxCell>
        <mxCell id="HoJw07WEgpqZ8-vBHWcj-148" value="" style="group" parent="HoJw07WEgpqZ8-vBHWcj-147" vertex="1" connectable="0">
          <mxGeometry width="45" height="80" as="geometry"/>
        </mxCell>
        <mxCell id="HoJw07WEgpqZ8-vBHWcj-149" value="" style="group" parent="HoJw07WEgpqZ8-vBHWcj-148" vertex="1" connectable="0">
          <mxGeometry width="45" height="80" as="geometry"/>
        </mxCell>
        <mxCell id="HoJw07WEgpqZ8-vBHWcj-150" value="" style="rhombus;whiteSpace=wrap;html=1;fillColor=#dae8fc;strokeColor=#6c8ebf;" parent="HoJw07WEgpqZ8-vBHWcj-149" vertex="1">
          <mxGeometry x="13" width="18" height="80" as="geometry"/>
        </mxCell>
        <mxCell id="HoJw07WEgpqZ8-vBHWcj-151" value="规则1" style="rounded=0;whiteSpace=wrap;html=1;fillColor=#dae8fc;strokeColor=#6c8ebf;" parent="HoJw07WEgpqZ8-vBHWcj-149" vertex="1">
          <mxGeometry y="30" width="45" height="20" as="geometry"/>
        </mxCell>
        <mxCell id="HoJw07WEgpqZ8-vBHWcj-162" value="&lt;b&gt;OUTPUT&lt;/b&gt;" style="rounded=1;whiteSpace=wrap;html=1;fillColor=#e51400;strokeColor=#B20000;fontColor=#ffffff;" parent="1" vertex="1">
          <mxGeometry x="750" y="30" width="120" height="40" as="geometry"/>
        </mxCell>
        <mxCell id="HoJw07WEgpqZ8-vBHWcj-163" value="" style="group" parent="1" vertex="1" connectable="0">
          <mxGeometry x="787.5" y="230" width="45" height="80" as="geometry"/>
        </mxCell>
        <mxCell id="HoJw07WEgpqZ8-vBHWcj-164" value="" style="group" parent="1" vertex="1" connectable="0">
          <mxGeometry x="787.5" y="150" width="45" height="80" as="geometry"/>
        </mxCell>
        <mxCell id="HoJw07WEgpqZ8-vBHWcj-165" value="" style="group" parent="HoJw07WEgpqZ8-vBHWcj-164" vertex="1" connectable="0">
          <mxGeometry width="45" height="80" as="geometry"/>
        </mxCell>
        <mxCell id="HoJw07WEgpqZ8-vBHWcj-166" value="" style="group" parent="HoJw07WEgpqZ8-vBHWcj-165" vertex="1" connectable="0">
          <mxGeometry width="45" height="80" as="geometry"/>
        </mxCell>
        <mxCell id="HoJw07WEgpqZ8-vBHWcj-167" value="" style="rhombus;whiteSpace=wrap;html=1;fillColor=#dae8fc;strokeColor=#6c8ebf;" parent="HoJw07WEgpqZ8-vBHWcj-166" vertex="1">
          <mxGeometry x="13" width="18" height="80" as="geometry"/>
        </mxCell>
        <mxCell id="HoJw07WEgpqZ8-vBHWcj-168" value="规则2" style="rounded=0;whiteSpace=wrap;html=1;fillColor=#dae8fc;strokeColor=#6c8ebf;" parent="HoJw07WEgpqZ8-vBHWcj-166" vertex="1">
          <mxGeometry y="30" width="45" height="20" as="geometry"/>
        </mxCell>
        <mxCell id="HoJw07WEgpqZ8-vBHWcj-169" value="" style="group" parent="1" vertex="1" connectable="0">
          <mxGeometry x="787" y="230" width="45" height="80" as="geometry"/>
        </mxCell>
        <mxCell id="HoJw07WEgpqZ8-vBHWcj-170" value="" style="group" parent="HoJw07WEgpqZ8-vBHWcj-169" vertex="1" connectable="0">
          <mxGeometry width="45" height="80" as="geometry"/>
        </mxCell>
        <mxCell id="HoJw07WEgpqZ8-vBHWcj-171" value="" style="group" parent="HoJw07WEgpqZ8-vBHWcj-170" vertex="1" connectable="0">
          <mxGeometry width="45" height="80" as="geometry"/>
        </mxCell>
        <mxCell id="HoJw07WEgpqZ8-vBHWcj-172" value="" style="rhombus;whiteSpace=wrap;html=1;fillColor=#dae8fc;strokeColor=#6c8ebf;" parent="HoJw07WEgpqZ8-vBHWcj-171" vertex="1">
          <mxGeometry x="13" width="18" height="80" as="geometry"/>
        </mxCell>
        <mxCell id="HoJw07WEgpqZ8-vBHWcj-173" value="规则3" style="rounded=0;whiteSpace=wrap;html=1;fillColor=#dae8fc;strokeColor=#6c8ebf;" parent="HoJw07WEgpqZ8-vBHWcj-171" vertex="1">
          <mxGeometry y="30" width="45" height="20" as="geometry"/>
        </mxCell>
        <mxCell id="HoJw07WEgpqZ8-vBHWcj-174" value="" style="group" parent="1" vertex="1" connectable="0">
          <mxGeometry x="786.5" y="70" width="45" height="80" as="geometry"/>
        </mxCell>
        <mxCell id="HoJw07WEgpqZ8-vBHWcj-175" value="" style="group" parent="HoJw07WEgpqZ8-vBHWcj-174" vertex="1" connectable="0">
          <mxGeometry width="45" height="80" as="geometry"/>
        </mxCell>
        <mxCell id="HoJw07WEgpqZ8-vBHWcj-176" value="" style="group" parent="HoJw07WEgpqZ8-vBHWcj-175" vertex="1" connectable="0">
          <mxGeometry width="45" height="80" as="geometry"/>
        </mxCell>
        <mxCell id="HoJw07WEgpqZ8-vBHWcj-177" value="" style="rhombus;whiteSpace=wrap;html=1;fillColor=#dae8fc;strokeColor=#6c8ebf;" parent="HoJw07WEgpqZ8-vBHWcj-176" vertex="1">
          <mxGeometry x="13" width="18" height="80" as="geometry"/>
        </mxCell>
        <mxCell id="HoJw07WEgpqZ8-vBHWcj-178" value="规则1" style="rounded=0;whiteSpace=wrap;html=1;fillColor=#dae8fc;strokeColor=#6c8ebf;" parent="HoJw07WEgpqZ8-vBHWcj-176" vertex="1">
          <mxGeometry y="30" width="45" height="20" as="geometry"/>
        </mxCell>
        <mxCell id="HoJw07WEgpqZ8-vBHWcj-179" value="" style="group" parent="1" vertex="1" connectable="0">
          <mxGeometry x="786.5" y="310" width="45" height="80" as="geometry"/>
        </mxCell>
        <mxCell id="HoJw07WEgpqZ8-vBHWcj-180" value="" style="group" parent="HoJw07WEgpqZ8-vBHWcj-179" vertex="1" connectable="0">
          <mxGeometry width="45" height="80" as="geometry"/>
        </mxCell>
        <mxCell id="HoJw07WEgpqZ8-vBHWcj-181" value="" style="group" parent="HoJw07WEgpqZ8-vBHWcj-180" vertex="1" connectable="0">
          <mxGeometry width="45" height="80" as="geometry"/>
        </mxCell>
        <mxCell id="HoJw07WEgpqZ8-vBHWcj-182" value="" style="rhombus;whiteSpace=wrap;html=1;fillColor=#dae8fc;strokeColor=#6c8ebf;" parent="HoJw07WEgpqZ8-vBHWcj-181" vertex="1">
          <mxGeometry x="13" width="18" height="80" as="geometry"/>
        </mxCell>
        <mxCell id="HoJw07WEgpqZ8-vBHWcj-183" value="规则4" style="rounded=0;whiteSpace=wrap;html=1;fillColor=#dae8fc;strokeColor=#6c8ebf;" parent="HoJw07WEgpqZ8-vBHWcj-181" vertex="1">
          <mxGeometry y="30" width="45" height="20" as="geometry"/>
        </mxCell>
        <mxCell id="HoJw07WEgpqZ8-vBHWcj-184" value="" style="group" parent="1" vertex="1" connectable="0">
          <mxGeometry x="786" y="390" width="45" height="80" as="geometry"/>
        </mxCell>
        <mxCell id="HoJw07WEgpqZ8-vBHWcj-185" value="" style="group" parent="HoJw07WEgpqZ8-vBHWcj-184" vertex="1" connectable="0">
          <mxGeometry width="45" height="80" as="geometry"/>
        </mxCell>
        <mxCell id="HoJw07WEgpqZ8-vBHWcj-186" value="" style="group" parent="HoJw07WEgpqZ8-vBHWcj-185" vertex="1" connectable="0">
          <mxGeometry width="45" height="80" as="geometry"/>
        </mxCell>
        <mxCell id="HoJw07WEgpqZ8-vBHWcj-187" value="" style="rhombus;whiteSpace=wrap;html=1;fillColor=#dae8fc;strokeColor=#6c8ebf;" parent="HoJw07WEgpqZ8-vBHWcj-186" vertex="1">
          <mxGeometry x="13" width="18" height="80" as="geometry"/>
        </mxCell>
        <mxCell id="HoJw07WEgpqZ8-vBHWcj-188" value="规则5" style="rounded=0;whiteSpace=wrap;html=1;fillColor=#dae8fc;strokeColor=#6c8ebf;" parent="HoJw07WEgpqZ8-vBHWcj-186" vertex="1">
          <mxGeometry y="30" width="45" height="20" as="geometry"/>
        </mxCell>
        <mxCell id="HoJw07WEgpqZ8-vBHWcj-49" value="" style="group" parent="1" vertex="1" connectable="0">
          <mxGeometry x="146" y="390" width="75" height="80" as="geometry"/>
        </mxCell>
        <mxCell id="HoJw07WEgpqZ8-vBHWcj-50" value="" style="rhombus;whiteSpace=wrap;html=1;fillColor=#dae8fc;strokeColor=#6c8ebf;" parent="HoJw07WEgpqZ8-vBHWcj-49" vertex="1">
          <mxGeometry x="13" width="18" height="80" as="geometry"/>
        </mxCell>
        <mxCell id="HoJw07WEgpqZ8-vBHWcj-51" value="规则5" style="rounded=0;whiteSpace=wrap;html=1;fillColor=#dae8fc;strokeColor=#6c8ebf;" parent="HoJw07WEgpqZ8-vBHWcj-49" vertex="1">
          <mxGeometry y="30" width="45" height="20" as="geometry"/>
        </mxCell>
        <mxCell id="HoJw07WEgpqZ8-vBHWcj-102" value="" style="group" parent="1" vertex="1" connectable="0">
          <mxGeometry x="306" y="390" width="45" height="80" as="geometry"/>
        </mxCell>
        <mxCell id="HoJw07WEgpqZ8-vBHWcj-103" value="" style="group" parent="HoJw07WEgpqZ8-vBHWcj-102" vertex="1" connectable="0">
          <mxGeometry width="45" height="80" as="geometry"/>
        </mxCell>
        <mxCell id="HoJw07WEgpqZ8-vBHWcj-104" value="" style="rhombus;whiteSpace=wrap;html=1;fillColor=#dae8fc;strokeColor=#6c8ebf;" parent="HoJw07WEgpqZ8-vBHWcj-103" vertex="1">
          <mxGeometry x="13" width="18" height="80" as="geometry"/>
        </mxCell>
        <mxCell id="HoJw07WEgpqZ8-vBHWcj-105" value="规则5" style="rounded=0;whiteSpace=wrap;html=1;fillColor=#dae8fc;strokeColor=#6c8ebf;" parent="HoJw07WEgpqZ8-vBHWcj-103" vertex="1">
          <mxGeometry y="30" width="45" height="20" as="geometry"/>
        </mxCell>
        <mxCell id="HoJw07WEgpqZ8-vBHWcj-129" value="" style="group" parent="1" vertex="1" connectable="0">
          <mxGeometry x="466" y="390" width="45" height="80" as="geometry"/>
        </mxCell>
        <mxCell id="HoJw07WEgpqZ8-vBHWcj-130" value="" style="group" parent="HoJw07WEgpqZ8-vBHWcj-129" vertex="1" connectable="0">
          <mxGeometry width="45" height="80" as="geometry"/>
        </mxCell>
        <mxCell id="HoJw07WEgpqZ8-vBHWcj-131" value="" style="rhombus;whiteSpace=wrap;html=1;fillColor=#dae8fc;strokeColor=#6c8ebf;" parent="HoJw07WEgpqZ8-vBHWcj-130" vertex="1">
          <mxGeometry x="13" width="18" height="80" as="geometry"/>
        </mxCell>
        <mxCell id="HoJw07WEgpqZ8-vBHWcj-132" value="规则5" style="rounded=0;whiteSpace=wrap;html=1;fillColor=#dae8fc;strokeColor=#6c8ebf;" parent="HoJw07WEgpqZ8-vBHWcj-130" vertex="1">
          <mxGeometry y="30" width="45" height="20" as="geometry"/>
        </mxCell>
        <mxCell id="HoJw07WEgpqZ8-vBHWcj-114" value="" style="group" parent="1" vertex="1" connectable="0">
          <mxGeometry x="467" y="230" width="45" height="80" as="geometry"/>
        </mxCell>
        <mxCell id="HoJw07WEgpqZ8-vBHWcj-115" value="" style="group" parent="HoJw07WEgpqZ8-vBHWcj-114" vertex="1" connectable="0">
          <mxGeometry width="45" height="80" as="geometry"/>
        </mxCell>
        <mxCell id="HoJw07WEgpqZ8-vBHWcj-116" value="" style="rhombus;whiteSpace=wrap;html=1;fillColor=#dae8fc;strokeColor=#6c8ebf;" parent="HoJw07WEgpqZ8-vBHWcj-115" vertex="1">
          <mxGeometry x="13" width="18" height="80" as="geometry"/>
        </mxCell>
        <mxCell id="HoJw07WEgpqZ8-vBHWcj-117" value="规则3" style="rounded=0;whiteSpace=wrap;html=1;fillColor=#dae8fc;strokeColor=#6c8ebf;" parent="HoJw07WEgpqZ8-vBHWcj-115" vertex="1">
          <mxGeometry y="30" width="45" height="20" as="geometry"/>
        </mxCell>
        <mxCell id="HoJw07WEgpqZ8-vBHWcj-109" value="" style="group" parent="1" vertex="1" connectable="0">
          <mxGeometry x="467.5" y="150" width="45" height="80" as="geometry"/>
        </mxCell>
        <mxCell id="HoJw07WEgpqZ8-vBHWcj-110" value="" style="group" parent="HoJw07WEgpqZ8-vBHWcj-109" vertex="1" connectable="0">
          <mxGeometry width="45" height="80" as="geometry"/>
        </mxCell>
        <mxCell id="HoJw07WEgpqZ8-vBHWcj-111" value="" style="rhombus;whiteSpace=wrap;html=1;fillColor=#dae8fc;strokeColor=#6c8ebf;" parent="HoJw07WEgpqZ8-vBHWcj-110" vertex="1">
          <mxGeometry x="13" width="18" height="80" as="geometry"/>
        </mxCell>
        <mxCell id="HoJw07WEgpqZ8-vBHWcj-112" value="规则2" style="rounded=0;whiteSpace=wrap;html=1;fillColor=#dae8fc;strokeColor=#6c8ebf;" parent="HoJw07WEgpqZ8-vBHWcj-110" vertex="1">
          <mxGeometry y="30" width="45" height="20" as="geometry"/>
        </mxCell>
        <mxCell id="HoJw07WEgpqZ8-vBHWcj-119" value="" style="group" parent="1" vertex="1" connectable="0">
          <mxGeometry x="466.5" y="70" width="45" height="80" as="geometry"/>
        </mxCell>
        <mxCell id="HoJw07WEgpqZ8-vBHWcj-120" value="" style="group" parent="HoJw07WEgpqZ8-vBHWcj-119" vertex="1" connectable="0">
          <mxGeometry width="45" height="80" as="geometry"/>
        </mxCell>
        <mxCell id="HoJw07WEgpqZ8-vBHWcj-121" value="" style="rhombus;whiteSpace=wrap;html=1;fillColor=#dae8fc;strokeColor=#6c8ebf;" parent="HoJw07WEgpqZ8-vBHWcj-120" vertex="1">
          <mxGeometry x="13" width="18" height="80" as="geometry"/>
        </mxCell>
        <mxCell id="HoJw07WEgpqZ8-vBHWcj-122" value="规则1" style="rounded=0;whiteSpace=wrap;html=1;fillColor=#dae8fc;strokeColor=#6c8ebf;" parent="HoJw07WEgpqZ8-vBHWcj-120" vertex="1">
          <mxGeometry y="30" width="45" height="20" as="geometry"/>
        </mxCell>
        <mxCell id="r7FmHn-63hna5co0nTBX-1" value="&lt;font color=&quot;#ff8000&quot;&gt;&lt;b&gt;公众号@Linux云计算网络&lt;br&gt;&lt;br&gt;需要原图请加公众号后台回复&lt;br&gt;&lt;/b&gt;&lt;/font&gt;" style="text;html=1;strokeColor=none;fillColor=none;align=center;verticalAlign=middle;whiteSpace=wrap;rounded=0;shadow=0;glass=0;comic=0;" vertex="1" parent="1">
          <mxGeometry x="567" y="420" width="164" height="20" as="geometry"/>
        </mxCell>
        <mxCell id="r7FmHn-63hna5co0nTBX-2" value="&lt;font color=&quot;#ff8000&quot;&gt;&lt;b&gt;公众号@Linux云计算网络&lt;/b&gt;&lt;/font&gt;" style="text;html=1;strokeColor=none;fillColor=none;align=center;verticalAlign=middle;whiteSpace=wrap;rounded=0;shadow=0;glass=0;comic=0;rotation=-90;" vertex="1" parent="1">
          <mxGeometry x="23" y="380" width="150" height="20" as="geometry"/>
        </mxCell>
      </root>
    </mxGraphModel>
  </diagram>
</mxfile>
